<mxfile host="app.diagrams.net" modified="2023-09-01T07:33:19.925Z" agent="Mozilla/5.0 (Windows NT 10.0; Win64; x64) AppleWebKit/537.36 (KHTML, like Gecko) Chrome/116.0.0.0 Safari/537.36 Edg/116.0.1938.62" etag="Y6io7yRpKmhf4tnLPFMU" version="21.6.9" type="device">
  <diagram id="C5RBs43oDa-KdzZeNtuy" name="Page-1">
    <mxGraphModel dx="2019" dy="1124" grid="1" gridSize="10" guides="1" tooltips="1" connect="1" arrows="1" fold="1" page="1" pageScale="1" pageWidth="827" pageHeight="1169" math="0" shadow="0">
      <root>
        <mxCell id="WIyWlLk6GJQsqaUBKTNV-0" />
        <mxCell id="WIyWlLk6GJQsqaUBKTNV-1" parent="WIyWlLk6GJQsqaUBKTNV-0" />
        <mxCell id="SDpecss4k2ysWKTHnSYy-3" style="edgeStyle=orthogonalEdgeStyle;rounded=0;orthogonalLoop=1;jettySize=auto;html=1;exitX=0.5;exitY=1;exitDx=0;exitDy=0;exitPerimeter=0;entryX=0.5;entryY=0;entryDx=0;entryDy=0;" edge="1" parent="WIyWlLk6GJQsqaUBKTNV-1" source="SDpecss4k2ysWKTHnSYy-1" target="SDpecss4k2ysWKTHnSYy-2">
          <mxGeometry relative="1" as="geometry" />
        </mxCell>
        <mxCell id="SDpecss4k2ysWKTHnSYy-1" value="Start" style="strokeWidth=2;html=1;shape=mxgraph.flowchart.start_1;whiteSpace=wrap;" vertex="1" parent="WIyWlLk6GJQsqaUBKTNV-1">
          <mxGeometry x="481" y="20" width="100" height="60" as="geometry" />
        </mxCell>
        <mxCell id="SDpecss4k2ysWKTHnSYy-5" value="" style="edgeStyle=orthogonalEdgeStyle;rounded=0;orthogonalLoop=1;jettySize=auto;html=1;" edge="1" parent="WIyWlLk6GJQsqaUBKTNV-1" source="SDpecss4k2ysWKTHnSYy-2" target="SDpecss4k2ysWKTHnSYy-4">
          <mxGeometry relative="1" as="geometry" />
        </mxCell>
        <mxCell id="SDpecss4k2ysWKTHnSYy-2" value="Initialize" style="rounded=1;whiteSpace=wrap;html=1;absoluteArcSize=1;arcSize=14;strokeWidth=2;" vertex="1" parent="WIyWlLk6GJQsqaUBKTNV-1">
          <mxGeometry x="471" y="100" width="120" height="60" as="geometry" />
        </mxCell>
        <mxCell id="SDpecss4k2ysWKTHnSYy-7" value="" style="edgeStyle=orthogonalEdgeStyle;rounded=0;orthogonalLoop=1;jettySize=auto;html=1;" edge="1" parent="WIyWlLk6GJQsqaUBKTNV-1" source="SDpecss4k2ysWKTHnSYy-4" target="SDpecss4k2ysWKTHnSYy-6">
          <mxGeometry relative="1" as="geometry" />
        </mxCell>
        <mxCell id="SDpecss4k2ysWKTHnSYy-4" value="Get Constants" style="rounded=1;whiteSpace=wrap;html=1;absoluteArcSize=1;arcSize=14;strokeWidth=2;" vertex="1" parent="WIyWlLk6GJQsqaUBKTNV-1">
          <mxGeometry x="471" y="185" width="120" height="60" as="geometry" />
        </mxCell>
        <mxCell id="SDpecss4k2ysWKTHnSYy-9" value="" style="edgeStyle=orthogonalEdgeStyle;rounded=0;orthogonalLoop=1;jettySize=auto;html=1;" edge="1" parent="WIyWlLk6GJQsqaUBKTNV-1" source="SDpecss4k2ysWKTHnSYy-6" target="SDpecss4k2ysWKTHnSYy-8">
          <mxGeometry relative="1" as="geometry" />
        </mxCell>
        <mxCell id="SDpecss4k2ysWKTHnSYy-6" value="Reset" style="whiteSpace=wrap;html=1;rounded=1;arcSize=14;strokeWidth=2;" vertex="1" parent="WIyWlLk6GJQsqaUBKTNV-1">
          <mxGeometry x="471" y="265" width="120" height="60" as="geometry" />
        </mxCell>
        <mxCell id="SDpecss4k2ysWKTHnSYy-11" style="edgeStyle=orthogonalEdgeStyle;rounded=0;orthogonalLoop=1;jettySize=auto;html=1;exitX=0.5;exitY=1;exitDx=0;exitDy=0;entryX=0.5;entryY=0;entryDx=0;entryDy=0;entryPerimeter=0;" edge="1" parent="WIyWlLk6GJQsqaUBKTNV-1" source="SDpecss4k2ysWKTHnSYy-8" target="SDpecss4k2ysWKTHnSYy-10">
          <mxGeometry relative="1" as="geometry" />
        </mxCell>
        <mxCell id="SDpecss4k2ysWKTHnSYy-8" value="Process" style="whiteSpace=wrap;html=1;rounded=1;arcSize=14;strokeWidth=2;" vertex="1" parent="WIyWlLk6GJQsqaUBKTNV-1">
          <mxGeometry x="471" y="345" width="120" height="60" as="geometry" />
        </mxCell>
        <mxCell id="SDpecss4k2ysWKTHnSYy-18" value="" style="edgeStyle=orthogonalEdgeStyle;rounded=0;orthogonalLoop=1;jettySize=auto;html=1;" edge="1" parent="WIyWlLk6GJQsqaUBKTNV-1" source="SDpecss4k2ysWKTHnSYy-10" target="SDpecss4k2ysWKTHnSYy-17">
          <mxGeometry relative="1" as="geometry" />
        </mxCell>
        <mxCell id="SDpecss4k2ysWKTHnSYy-25" value="No" style="edgeLabel;html=1;align=center;verticalAlign=middle;resizable=0;points=[];" vertex="1" connectable="0" parent="SDpecss4k2ysWKTHnSYy-18">
          <mxGeometry x="-0.6524" relative="1" as="geometry">
            <mxPoint x="-5" as="offset" />
          </mxGeometry>
        </mxCell>
        <mxCell id="SDpecss4k2ysWKTHnSYy-34" value="" style="edgeStyle=orthogonalEdgeStyle;rounded=0;orthogonalLoop=1;jettySize=auto;html=1;" edge="1" parent="WIyWlLk6GJQsqaUBKTNV-1" source="SDpecss4k2ysWKTHnSYy-10" target="SDpecss4k2ysWKTHnSYy-33">
          <mxGeometry relative="1" as="geometry" />
        </mxCell>
        <mxCell id="SDpecss4k2ysWKTHnSYy-38" value="Yes" style="edgeLabel;html=1;align=center;verticalAlign=middle;resizable=0;points=[];" vertex="1" connectable="0" parent="SDpecss4k2ysWKTHnSYy-34">
          <mxGeometry x="-0.3707" y="1" relative="1" as="geometry">
            <mxPoint x="-2" as="offset" />
          </mxGeometry>
        </mxCell>
        <mxCell id="SDpecss4k2ysWKTHnSYy-10" value="Error?" style="strokeWidth=2;html=1;shape=mxgraph.flowchart.decision;whiteSpace=wrap;" vertex="1" parent="WIyWlLk6GJQsqaUBKTNV-1">
          <mxGeometry x="481" y="435" width="100" height="100" as="geometry" />
        </mxCell>
        <mxCell id="SDpecss4k2ysWKTHnSYy-20" style="edgeStyle=orthogonalEdgeStyle;rounded=0;orthogonalLoop=1;jettySize=auto;html=1;exitX=0;exitY=0.5;exitDx=0;exitDy=0;" edge="1" parent="WIyWlLk6GJQsqaUBKTNV-1" source="SDpecss4k2ysWKTHnSYy-17" target="SDpecss4k2ysWKTHnSYy-19">
          <mxGeometry relative="1" as="geometry" />
        </mxCell>
        <mxCell id="SDpecss4k2ysWKTHnSYy-17" value="Clean up" style="rounded=1;whiteSpace=wrap;html=1;strokeWidth=2;" vertex="1" parent="WIyWlLk6GJQsqaUBKTNV-1">
          <mxGeometry x="231" y="455" width="120" height="60" as="geometry" />
        </mxCell>
        <mxCell id="SDpecss4k2ysWKTHnSYy-19" value="End" style="strokeWidth=2;html=1;shape=mxgraph.flowchart.terminator;whiteSpace=wrap;" vertex="1" parent="WIyWlLk6GJQsqaUBKTNV-1">
          <mxGeometry x="81" y="455" width="100" height="60" as="geometry" />
        </mxCell>
        <mxCell id="SDpecss4k2ysWKTHnSYy-43" style="edgeStyle=orthogonalEdgeStyle;rounded=0;orthogonalLoop=1;jettySize=auto;html=1;exitX=0;exitY=0.5;exitDx=0;exitDy=0;exitPerimeter=0;entryX=0.5;entryY=1;entryDx=0;entryDy=0;" edge="1" parent="WIyWlLk6GJQsqaUBKTNV-1" source="SDpecss4k2ysWKTHnSYy-23" target="SDpecss4k2ysWKTHnSYy-17">
          <mxGeometry relative="1" as="geometry" />
        </mxCell>
        <mxCell id="SDpecss4k2ysWKTHnSYy-44" value="Yes" style="edgeLabel;html=1;align=center;verticalAlign=middle;resizable=0;points=[];" vertex="1" connectable="0" parent="SDpecss4k2ysWKTHnSYy-43">
          <mxGeometry x="-0.6944" y="-1" relative="1" as="geometry">
            <mxPoint as="offset" />
          </mxGeometry>
        </mxCell>
        <mxCell id="SDpecss4k2ysWKTHnSYy-45" style="edgeStyle=orthogonalEdgeStyle;rounded=0;orthogonalLoop=1;jettySize=auto;html=1;exitX=1;exitY=0.5;exitDx=0;exitDy=0;exitPerimeter=0;entryX=1;entryY=0.5;entryDx=0;entryDy=0;" edge="1" parent="WIyWlLk6GJQsqaUBKTNV-1" source="SDpecss4k2ysWKTHnSYy-23" target="SDpecss4k2ysWKTHnSYy-6">
          <mxGeometry relative="1" as="geometry">
            <Array as="points">
              <mxPoint x="691" y="860" />
              <mxPoint x="691" y="295" />
            </Array>
          </mxGeometry>
        </mxCell>
        <mxCell id="SDpecss4k2ysWKTHnSYy-46" value="No" style="edgeLabel;html=1;align=center;verticalAlign=middle;resizable=0;points=[];" vertex="1" connectable="0" parent="SDpecss4k2ysWKTHnSYy-45">
          <mxGeometry x="-0.9387" y="-1" relative="1" as="geometry">
            <mxPoint y="-1" as="offset" />
          </mxGeometry>
        </mxCell>
        <mxCell id="SDpecss4k2ysWKTHnSYy-23" value="Too many &lt;br&gt;errors?" style="strokeWidth=2;html=1;shape=mxgraph.flowchart.decision;whiteSpace=wrap;" vertex="1" parent="WIyWlLk6GJQsqaUBKTNV-1">
          <mxGeometry x="481" y="810" width="100" height="100" as="geometry" />
        </mxCell>
        <mxCell id="SDpecss4k2ysWKTHnSYy-36" value="" style="edgeStyle=orthogonalEdgeStyle;rounded=0;orthogonalLoop=1;jettySize=auto;html=1;" edge="1" parent="WIyWlLk6GJQsqaUBKTNV-1" source="SDpecss4k2ysWKTHnSYy-33" target="SDpecss4k2ysWKTHnSYy-37">
          <mxGeometry relative="1" as="geometry">
            <mxPoint x="531" y="700" as="targetPoint" />
          </mxGeometry>
        </mxCell>
        <mxCell id="SDpecss4k2ysWKTHnSYy-33" value="Send error screenshot" style="rounded=1;whiteSpace=wrap;html=1;strokeWidth=2;" vertex="1" parent="WIyWlLk6GJQsqaUBKTNV-1">
          <mxGeometry x="471" y="580" width="120" height="60" as="geometry" />
        </mxCell>
        <mxCell id="SDpecss4k2ysWKTHnSYy-39" style="edgeStyle=orthogonalEdgeStyle;rounded=0;orthogonalLoop=1;jettySize=auto;html=1;exitX=0.5;exitY=1;exitDx=0;exitDy=0;exitPerimeter=0;entryX=0.5;entryY=0;entryDx=0;entryDy=0;entryPerimeter=0;" edge="1" parent="WIyWlLk6GJQsqaUBKTNV-1" source="SDpecss4k2ysWKTHnSYy-37" target="SDpecss4k2ysWKTHnSYy-23">
          <mxGeometry relative="1" as="geometry" />
        </mxCell>
        <mxCell id="SDpecss4k2ysWKTHnSYy-42" value="Other" style="edgeLabel;html=1;align=center;verticalAlign=middle;resizable=0;points=[];" vertex="1" connectable="0" parent="SDpecss4k2ysWKTHnSYy-39">
          <mxGeometry x="-0.1121" y="1" relative="1" as="geometry">
            <mxPoint x="-2" y="-2" as="offset" />
          </mxGeometry>
        </mxCell>
        <mxCell id="SDpecss4k2ysWKTHnSYy-40" style="edgeStyle=orthogonalEdgeStyle;rounded=0;orthogonalLoop=1;jettySize=auto;html=1;exitX=0;exitY=0.5;exitDx=0;exitDy=0;exitPerimeter=0;entryX=0.5;entryY=1;entryDx=0;entryDy=0;" edge="1" parent="WIyWlLk6GJQsqaUBKTNV-1" source="SDpecss4k2ysWKTHnSYy-37" target="SDpecss4k2ysWKTHnSYy-17">
          <mxGeometry relative="1" as="geometry" />
        </mxCell>
        <mxCell id="SDpecss4k2ysWKTHnSYy-41" value="Business Error" style="edgeLabel;html=1;align=center;verticalAlign=middle;resizable=0;points=[];" vertex="1" connectable="0" parent="SDpecss4k2ysWKTHnSYy-40">
          <mxGeometry x="-0.607" y="3" relative="1" as="geometry">
            <mxPoint x="-2" y="-3" as="offset" />
          </mxGeometry>
        </mxCell>
        <mxCell id="SDpecss4k2ysWKTHnSYy-37" value="Error type" style="strokeWidth=2;html=1;shape=mxgraph.flowchart.decision;whiteSpace=wrap;" vertex="1" parent="WIyWlLk6GJQsqaUBKTNV-1">
          <mxGeometry x="481" y="670" width="100" height="100" as="geometry" />
        </mxCell>
      </root>
    </mxGraphModel>
  </diagram>
</mxfile>
